{
	"asset":{
		"generator":"Khronos glTF Blender I/O v4.3.47",
		"version":"2.0"
	},
	"scene":0,
	"scenes":[
		{
			"name":"Scene",
			"nodes":[
				0
			]
		}
	],
	"nodes":[
		{
			"mesh":0,
			"name":"\u041a\u0443\u0431"
		}
	],
	"materials":[
		{
			"doubleSided":true,
			"name":"cube",
			"pbrMetallicRoughness":{
				"baseColorFactor":[
					0.8000074625015259,
					0.008782573975622654,
					0.01044011302292347,
					1
				],
				"metallicFactor":0,
				"roughnessFactor":0.5
			}
		},
		{
			"doubleSided":true,
			"name":"Cylinder",
			"pbrMetallicRoughness":{
				"baseColorFactor":[
					0.11817561835050583,
					0.03468488156795502,
					0.8000074625015259,
					1
				],
				"metallicFactor":0.5507246255874634,
				"roughnessFactor":0.1666666567325592
			}
		},
		{
			"doubleSided":true,
			"name":"\u041c\u0430\u0442\u0435\u0440\u0438\u0430\u043b",
			"pbrMetallicRoughness":{
				"baseColorFactor":[
					0.8000074625015259,
					0.016418930143117905,
					0.010417955927550793,
					1
				],
				"metallicFactor":0,
				"roughnessFactor":0.5
			}
		},
		{
			"doubleSided":true,
			"name":"ring",
			"pbrMetallicRoughness":{
				"baseColorFactor":[
					0.8000156879425049,
					0.010535414330661297,
					0.010535414330661297,
					1
				],
				"metallicFactor":0,
				"roughnessFactor":0.5
			}
		}
	],
	"meshes":[
		{
			"name":"\u041a\u0443\u0431.002",
			"primitives":[
				{
					"attributes":{
						"POSITION":0,
						"NORMAL":1,
						"TEXCOORD_0":2,
						"TEXCOORD_1":3
					},
					"indices":4,
					"material":0
				},
				{
					"attributes":{
						"POSITION":5,
						"NORMAL":6,
						"TEXCOORD_0":7,
						"TEXCOORD_1":8
					},
					"indices":9,
					"material":1
				},
				{
					"attributes":{
						"POSITION":10,
						"NORMAL":11,
						"TEXCOORD_0":12,
						"TEXCOORD_1":13
					},
					"indices":14,
					"material":2
				},
				{
					"attributes":{
						"POSITION":15,
						"NORMAL":16,
						"TEXCOORD_0":17,
						"TEXCOORD_1":18
					},
					"indices":19,
					"material":3
				}
			]
		}
	],
	"accessors":[
		{
			"bufferView":0,
			"componentType":5126,
			"count":43,
			"max":[
				2.1114108562469482,
				0.20751427114009857,
				2.1114108562469482
			],
			"min":[
				-2.1114108562469482,
				-0.20751427114009857,
				-2.1114108562469482
			],
			"type":"VEC3"
		},
		{
			"bufferView":1,
			"componentType":5126,
			"count":43,
			"type":"VEC3"
		},
		{
			"bufferView":2,
			"componentType":5126,
			"count":43,
			"type":"VEC2"
		},
		{
			"bufferView":3,
			"componentType":5126,
			"count":43,
			"type":"VEC2"
		},
		{
			"bufferView":4,
			"componentType":5123,
			"count":132,
			"type":"SCALAR"
		},
		{
			"bufferView":5,
			"componentType":5126,
			"count":130,
			"max":[
				0.2609443664550781,
				7.906573295593262,
				0.2609443664550781
			],
			"min":[
				-0.2609443664550781,
				0.08492827415466309,
				-0.2609443664550781
			],
			"type":"VEC3"
		},
		{
			"bufferView":6,
			"componentType":5126,
			"count":130,
			"type":"VEC3"
		},
		{
			"bufferView":7,
			"componentType":5126,
			"count":130,
			"type":"VEC2"
		},
		{
			"bufferView":8,
			"componentType":5126,
			"count":130,
			"type":"VEC2"
		},
		{
			"bufferView":9,
			"componentType":5123,
			"count":372,
			"type":"SCALAR"
		},
		{
			"bufferView":10,
			"componentType":5126,
			"count":24,
			"max":[
				1,
				8.266929626464844,
				0.26284411549568176
			],
			"min":[
				-1,
				6.2669291496276855,
				-0.26284411549568176
			],
			"type":"VEC3"
		},
		{
			"bufferView":11,
			"componentType":5126,
			"count":24,
			"type":"VEC3"
		},
		{
			"bufferView":12,
			"componentType":5126,
			"count":24,
			"type":"VEC2"
		},
		{
			"bufferView":13,
			"componentType":5126,
			"count":24,
			"type":"VEC2"
		},
		{
			"bufferView":14,
			"componentType":5123,
			"count":36,
			"type":"SCALAR"
		},
		{
			"bufferView":15,
			"componentType":5126,
			"count":637,
			"max":[
				1.050065517425537,
				7.1017374992370605,
				2.3581318855285645
			],
			"min":[
				-1.050065517425537,
				7.001583576202393,
				0.2580009698867798
			],
			"type":"VEC3"
		},
		{
			"bufferView":16,
			"componentType":5126,
			"count":637,
			"type":"VEC3"
		},
		{
			"bufferView":17,
			"componentType":5126,
			"count":637,
			"type":"VEC2"
		},
		{
			"bufferView":18,
			"componentType":5126,
			"count":637,
			"type":"VEC2"
		},
		{
			"bufferView":19,
			"componentType":5123,
			"count":3456,
			"type":"SCALAR"
		}
	],
	"bufferViews":[
		{
			"buffer":0,
			"byteLength":516,
			"byteOffset":0,
			"target":34962
		},
		{
			"buffer":0,
			"byteLength":516,
			"byteOffset":516,
			"target":34962
		},
		{
			"buffer":0,
			"byteLength":344,
			"byteOffset":1032,
			"target":34962
		},
		{
			"buffer":0,
			"byteLength":344,
			"byteOffset":1376,
			"target":34962
		},
		{
			"buffer":0,
			"byteLength":264,
			"byteOffset":1720,
			"target":34963
		},
		{
			"buffer":0,
			"byteLength":1560,
			"byteOffset":1984,
			"target":34962
		},
		{
			"buffer":0,
			"byteLength":1560,
			"byteOffset":3544,
			"target":34962
		},
		{
			"buffer":0,
			"byteLength":1040,
			"byteOffset":5104,
			"target":34962
		},
		{
			"buffer":0,
			"byteLength":1040,
			"byteOffset":6144,
			"target":34962
		},
		{
			"buffer":0,
			"byteLength":744,
			"byteOffset":7184,
			"target":34963
		},
		{
			"buffer":0,
			"byteLength":288,
			"byteOffset":7928,
			"target":34962
		},
		{
			"buffer":0,
			"byteLength":288,
			"byteOffset":8216,
			"target":34962
		},
		{
			"buffer":0,
			"byteLength":192,
			"byteOffset":8504,
			"target":34962
		},
		{
			"buffer":0,
			"byteLength":192,
			"byteOffset":8696,
			"target":34962
		},
		{
			"buffer":0,
			"byteLength":72,
			"byteOffset":8888,
			"target":34963
		},
		{
			"buffer":0,
			"byteLength":7644,
			"byteOffset":8960,
			"target":34962
		},
		{
			"buffer":0,
			"byteLength":7644,
			"byteOffset":16604,
			"target":34962
		},
		{
			"buffer":0,
			"byteLength":5096,
			"byteOffset":24248,
			"target":34962
		},
		{
			"buffer":0,
			"byteLength":5096,
			"byteOffset":29344,
			"target":34962
		},
		{
			"buffer":0,
			"byteLength":6912,
			"byteOffset":34440,
			"target":34963
		}
	],
	"buffers":[
		{
			"byteLength":41352,
			"uri":"ring3.bin"
		}
	]
}
